<svg t="1701934301209" class="icon" viewBox="0 0 1024 1024" version="1.1"
    xmlns="http://www.w3.org/2000/svg" p-id="4412" id="mx_n_1701934301211" width="200" height="200">
    <path 
        d="M911.36 253.44L583.68 79.36c-46.08-23.04-99.84-23.04-143.36 0L112.64 253.44c-17.92 7.68-28.16 25.6-28.16 46.08v404.48c0 38.4 20.48 71.68 53.76 89.6l345.6 184.32c15.36 7.68 33.28 7.68 48.64 0L883.2 793.6c33.28-17.92 53.76-53.76 53.76-89.6V296.96c0-17.92-10.24-35.84-25.6-43.52zM460.8 847.36L189.44 704V381.44L460.8 527.36v320z m51.2-409.6L248.32 296.96l240.64-128c15.36-7.68 33.28-7.68 48.64 0l240.64 128L512 437.76z m322.56 266.24L563.2 847.36V527.36L834.56 384v320z" 
        p-id="4413" 
        fill="#5672cd"></path>
</svg>